<mxfile host="app.diagrams.net" modified="2024-07-10T14:17:31.277Z" agent="Mozilla/5.0 (Windows NT 10.0; Win64; x64) AppleWebKit/537.36 (KHTML, like Gecko) Chrome/125.0.0.0 Safari/537.36 Edg/125.0.0.0" version="24.6.4" etag="QhMbayorOf2CtB7Lql3R" type="github">
  <diagram name="Page-1" id="2_PELL66a12UXN9PmbQQ">
    <mxGraphModel>
      <root>
        <mxCell id="0" />
        <mxCell id="1" parent="0" />
        <mxCell id="2" value="Router 2" style="whiteSpace=wrap;strokeWidth=2;verticalAlign=top;" vertex="1" parent="1">
          <mxGeometry x="581" y="85" width="364" height="324" as="geometry" />
        </mxCell>
        <mxCell id="3" value="Load Balancer" style="ellipse;aspect=fixed;strokeWidth=2;whiteSpace=wrap;" vertex="1" parent="1">
          <mxGeometry x="606" y="120" width="117" height="117" as="geometry" />
        </mxCell>
        <mxCell id="4" value="Router" style="ellipse;aspect=fixed;strokeWidth=2;whiteSpace=wrap;" vertex="1" parent="1">
          <mxGeometry x="852" y="147" width="63" height="63" as="geometry" />
        </mxCell>
        <mxCell id="5" value="Firewall" style="ellipse;aspect=fixed;strokeWidth=2;whiteSpace=wrap;" vertex="1" parent="1">
          <mxGeometry x="847" y="297" width="73" height="73" as="geometry" />
        </mxCell>
        <mxCell id="6" value="Internal Network" style="whiteSpace=wrap;strokeWidth=2;verticalAlign=top;" vertex="1" parent="1">
          <mxGeometry x="1070" y="3" width="303" height="417" as="geometry" />
        </mxCell>
        <mxCell id="7" value="Switch" style="ellipse;aspect=fixed;strokeWidth=2;whiteSpace=wrap;" vertex="1" parent="1">
          <mxGeometry x="1095" y="86" width="62" height="62" as="geometry" />
        </mxCell>
        <mxCell id="8" value="Server" style="ellipse;aspect=fixed;strokeWidth=2;whiteSpace=wrap;" vertex="1" parent="1">
          <mxGeometry x="1281" y="124" width="61" height="61" as="geometry" />
        </mxCell>
        <mxCell id="9" value="Desktop" style="ellipse;aspect=fixed;strokeWidth=2;whiteSpace=wrap;" vertex="1" parent="1">
          <mxGeometry x="1276" y="313" width="72" height="72" as="geometry" />
        </mxCell>
        <mxCell id="10" value="Router 1" style="whiteSpace=wrap;strokeWidth=2;verticalAlign=top;" vertex="1" parent="1">
          <mxGeometry width="453" height="224" as="geometry" />
        </mxCell>
        <mxCell id="11" value="ISP" style="ellipse;aspect=fixed;strokeWidth=2;whiteSpace=wrap;" vertex="1" parent="1">
          <mxGeometry x="25" y="99" width="36" height="36" as="geometry" />
        </mxCell>
        <mxCell id="12" value="Firewall" style="ellipse;aspect=fixed;strokeWidth=2;whiteSpace=wrap;" vertex="1" parent="1">
          <mxGeometry x="173" y="81" width="73" height="73" as="geometry" />
        </mxCell>
        <mxCell id="13" value="Router" style="ellipse;aspect=fixed;strokeWidth=2;whiteSpace=wrap;" vertex="1" parent="1">
          <mxGeometry x="365" y="86" width="63" height="63" as="geometry" />
        </mxCell>
        <mxCell id="14" value="Public IP" style="curved=1;startArrow=none;endArrow=block;exitX=1;exitY=0.51;entryX=0;entryY=0.5;" edge="1" parent="1" source="11" target="12">
          <mxGeometry relative="1" as="geometry">
            <Array as="points" />
          </mxGeometry>
        </mxCell>
        <mxCell id="15" value="Private IP" style="curved=1;startArrow=none;endArrow=block;exitX=1;exitY=0.5;entryX=-0.01;entryY=0.5;" edge="1" parent="1" source="12" target="13">
          <mxGeometry relative="1" as="geometry">
            <Array as="points" />
          </mxGeometry>
        </mxCell>
        <mxCell id="16" value="Internal IP" style="curved=1;startArrow=none;endArrow=block;exitX=0.96;exitY=-0.01;entryX=0.04;entryY=0;" edge="1" parent="1" source="13" target="7">
          <mxGeometry relative="1" as="geometry">
            <Array as="points">
              <mxPoint x="453" y="56" />
              <mxPoint x="1070" y="56" />
            </Array>
          </mxGeometry>
        </mxCell>
        <mxCell id="17" value="Private IP" style="curved=1;startArrow=none;endArrow=block;exitX=1;exitY=0.5;entryX=0;entryY=0.31;" edge="1" parent="1" source="7" target="8">
          <mxGeometry relative="1" as="geometry">
            <Array as="points">
              <mxPoint x="1216" y="117" />
            </Array>
          </mxGeometry>
        </mxCell>
        <mxCell id="18" value="Private IP" style="curved=1;startArrow=none;endArrow=block;exitX=0.74;exitY=1.01;entryX=0;entryY=0.27;" edge="1" parent="1" source="7" target="9">
          <mxGeometry relative="1" as="geometry">
            <Array as="points">
              <mxPoint x="1216" y="305" />
            </Array>
          </mxGeometry>
        </mxCell>
        <mxCell id="19" value="External IP" style="curved=1;startArrow=none;endArrow=block;exitX=0.96;exitY=1;entryX=0;entryY=0.5;" edge="1" parent="1" source="13" target="3">
          <mxGeometry relative="1" as="geometry">
            <Array as="points">
              <mxPoint x="453" y="179" />
            </Array>
          </mxGeometry>
        </mxCell>
        <mxCell id="20" value="DMZ IP" style="curved=1;startArrow=none;endArrow=block;exitX=1;exitY=0.5;entryX=0;entryY=0.5;" edge="1" parent="1" source="3" target="4">
          <mxGeometry relative="1" as="geometry">
            <Array as="points" />
          </mxGeometry>
        </mxCell>
        <mxCell id="21" value="Internal IP" style="curved=1;startArrow=none;endArrow=block;exitX=1;exitY=0.5;entryX=0.04;entryY=1.01;" edge="1" parent="1" source="4" target="7">
          <mxGeometry relative="1" as="geometry">
            <Array as="points">
              <mxPoint x="1070" y="179" />
            </Array>
          </mxGeometry>
        </mxCell>
        <mxCell id="22" value="Public IP" style="curved=1;startArrow=none;endArrow=block;exitX=1;exitY=0.03;entryX=0.11;entryY=1.01;" edge="1" parent="1" source="5" target="8">
          <mxGeometry relative="1" as="geometry">
            <Array as="points">
              <mxPoint x="945" y="275" />
              <mxPoint x="1216" y="275" />
            </Array>
          </mxGeometry>
        </mxCell>
        <mxCell id="23" value="Public IP" style="curved=1;startArrow=none;endArrow=block;exitX=1;exitY=0.74;entryX=0;entryY=0.57;" edge="1" parent="1" source="5" target="9">
          <mxGeometry relative="1" as="geometry">
            <Array as="points">
              <mxPoint x="945" y="363" />
              <mxPoint x="1216" y="363" />
            </Array>
          </mxGeometry>
        </mxCell>
      </root>
    </mxGraphModel>
  </diagram>
</mxfile>
